HIERARCHY
ROOT joint_Root
{
  OFFSET 0 0 0
  CHANNELS 6 Xposition Yposition Zposition Zrotation Xrotation Yrotation
  JOINT Hips
  {
    OFFSET 0.847027 93.984 -452.225
    CHANNELS 6 Xposition Yposition Zposition Zrotation Xrotation Yrotation
    JOINT Spine
    {
      OFFSET 15.7357 0 0
      CHANNELS 6 Xposition Yposition Zposition Zrotation Xrotation Yrotation
      JOINT Chest
      {
        OFFSET 8.98455 -0.406207 0
        CHANNELS 6 Xposition Yposition Zposition Zrotation Xrotation Yrotation
        JOINT Neck
        {
          OFFSET 16.3773 0 0
          CHANNELS 6 Xposition Yposition Zposition Zrotation Xrotation Yrotation
          JOINT Head
          {
            OFFSET 6.45672 0 0
            CHANNELS 6 Xposition Yposition Zposition Zrotation Xrotation Yrotation
            End Site
            {
              OFFSET 0 0 0
            }
          }
        }
        JOINT Shoulder_L
        {
          OFFSET 12.9942 -0.242716 4.98039
          CHANNELS 6 Xposition Yposition Zposition Zrotation Xrotation Yrotation
          JOINT UpperArm_L
          {
            OFFSET 5.34809 0 0
            CHANNELS 6 Xposition Yposition Zposition Zrotation Xrotation Yrotation
            JOINT LowerArm_L
            {
              OFFSET 24.3286 1.87007e-05 0
              CHANNELS 6 Xposition Yposition Zposition Zrotation Xrotation Yrotation
              JOINT Hand_L
              {
                OFFSET 22.2916 0 0
                CHANNELS 6 Xposition Yposition Zposition Zrotation Xrotation Yrotation
                End Site
                {
                  OFFSET 0 0 0
                }
              }
            }
          }
        }
        JOINT Shoulder_R
        {
          OFFSET 12.9945 -0.242716 -4.98039
          CHANNELS 6 Xposition Yposition Zposition Zrotation Xrotation Yrotation
          JOINT UpperArm_R
          {
            OFFSET -5.34813 0 0
            CHANNELS 6 Xposition Yposition Zposition Zrotation Xrotation Yrotation
            JOINT LowerArm_R
            {
              OFFSET -24.3289 0.000322201 0
              CHANNELS 6 Xposition Yposition Zposition Zrotation Xrotation Yrotation
              JOINT Hand_R
              {
                OFFSET -22.2915 -0.000108084 0
                CHANNELS 6 Xposition Yposition Zposition Zrotation Xrotation Yrotation
                End Site
                {
                  OFFSET 0 0 0
                }
              }
            }
          }
        }
      }
    }
    JOINT UpperLeg_L
    {
      OFFSET -2.19248 -6.46944 0
      CHANNELS 6 Xposition Yposition Zposition Zrotation Xrotation Yrotation
      JOINT LowerLeg_L
      {
        OFFSET 39.0811 0 -1.23785e-05
        CHANNELS 6 Xposition Yposition Zposition Zrotation Xrotation Yrotation
        JOINT Foot_L
        {
          OFFSET 40.9854 0 -1.26872e-05
          CHANNELS 6 Xposition Yposition Zposition Zrotation Xrotation Yrotation
          JOINT Toes_L
          {
            OFFSET 11.7543 0 0
            CHANNELS 6 Xposition Yposition Zposition Zrotation Xrotation Yrotation
            End Site
            {
              OFFSET 0 0 0
            }
          }
        }
      }
    }
    JOINT UpperLeg_R
    {
      OFFSET -2.19251 6.46944 0
      CHANNELS 6 Xposition Yposition Zposition Zrotation Xrotation Yrotation
      JOINT LowerLeg_R
      {
        OFFSET -39.0811 -0.00228153 -0.0401928
        CHANNELS 6 Xposition Yposition Zposition Zrotation Xrotation Yrotation
        JOINT Foot_R
        {
          OFFSET -40.9854 0 0
          CHANNELS 6 Xposition Yposition Zposition Zrotation Xrotation Yrotation
          JOINT Toes_R
          {
            OFFSET -11.7543 0 0
            CHANNELS 6 Xposition Yposition Zposition Zrotation Xrotation Yrotation
            End Site
            {
              OFFSET 0 0 0
            }
          }
        }
      }
    }
  }
}
MOTION
Frames:	5
Frame Time:	0.0333333
0 0 0 0 0 -0 -1.1785 88.9544 -5.14258 89.8691 -3.31738 5.16933 15.7357 5.1072e-06 -5.51765e-07 49.7373 89.0184 -50.8813 8.98455 -0.406207 -4.3199e-07 -6.27881 -1.12673 -2.35285 16.3773 -1.3905e-06 -6.99897e-07 3.04014 -4.20848 5.4735 6.45672 -1.25837e-06 -1.02172e-07 -5.2994 -2.45249 2.60616 12.9942 -0.242716 4.98039 -79.5955 -19.3268 -75.9781 5.34809 -7.22636e-06 -6.2814e-07 -41.5377 -77.3704 -102.708 24.3286 1.87007e-05 4.90208e-06 -10.9947 -18.5504 -31.412 22.2916 -9.88446e-07 4.63217e-06 17.4247 5.61208 -12.093 12.9945 -0.242716 -4.98039 95.6562 -15.0371 -84.1058 -5.34813 -1.25947e-06 -3.79883e-06 -62.1328 -73.6083 -119.761 -24.3289 0.000322201 -8.65921e-06 -3.64025 -4.6523 -38.1011 -22.2915 -0.000108084 -4.47941e-06 12.1843 5.43757 -4.20063 -2.19248 -6.46944 -1.22534e-07 -158.14 -33.4535 -4.63264 39.0811 -6.73843e-06 -1.23785e-05 0.0708484 -0.0914182 29.6095 40.9854 -6.48686e-06 -1.26872e-05 -10.9561 3.07671 -55.7362 11.7543 -2.30145e-07 3.05095e-06 -0.16867 -0.276382 -17.5303 -2.19251 6.46944 -1.45247e-06 158.911 32.3266 176.151 -39.0811 -0.00228153 -0.0401928 0.0870193 -0.121459 27.5951 -40.9854 7.72618e-06 5.99936e-06 -10.6238 3.27599 -56.7105 -11.7543 -5.6619e-06 -5.58687e-06 -1.11168 -1.25247 -17.0317 
0 0 0 0 0 -0 -1.21619 88.9026 -5.29357 89.8949 -3.04727 5.27324 15.7357 5.1072e-06 -5.51765e-07 50.147 89.0015 -51.2658 8.98455 -0.406207 -4.3199e-07 -6.24385 -1.14099 -2.30288 16.3773 -1.3905e-06 -6.99897e-07 3.13412 -4.19294 5.54601 6.45672 -1.25837e-06 -1.02172e-07 -5.38976 -2.32901 2.65499 12.9942 -0.242716 4.98039 -79.6859 -19.1058 -75.9258 5.34809 -7.22636e-06 -6.2814e-07 -40.3922 -77.305 -100.903 24.3286 1.87007e-05 4.90208e-06 -11.0491 -18.8626 -31.1318 22.2916 -9.88446e-07 4.63217e-06 17.6522 5.61367 -12.1943 12.9945 -0.242716 -4.98039 95.6476 -14.9036 -83.968 -5.34813 -1.25947e-06 -3.79883e-06 -63.8252 -73.2295 -121.501 -24.3289 0.000322201 -8.65921e-06 -3.68523 -4.85581 -37.2595 -22.2915 -0.000108084 -4.47941e-06 11.8693 5.43902 -4.25197 -2.19248 -6.46944 -1.22534e-07 -158.179 -33.3902 -4.83599 39.0811 -6.73843e-06 -1.23785e-05 0.0737619 -0.0958588 29.7965 40.9854 -6.48686e-06 -1.26872e-05 -10.9093 3.31482 -55.7541 11.7543 -2.30145e-07 3.05095e-06 -0.126411 -0.22336 -17.4603 -2.19251 6.46944 -1.45247e-06 158.82 32.3681 176.114 -39.0811 -0.00228153 -0.0401928 0.0846266 -0.115216 27.9162 -40.9854 7.72618e-06 5.99936e-06 -10.813 3.19273 -56.8534 -11.7543 -5.6619e-06 -5.58687e-06 -1.14237 -1.27933 -16.9858 
0 0 0 0 0 -0 -1.25647 88.8386 -5.42521 89.9065 -2.79135 5.44625 15.7357 5.1072e-06 -5.51765e-07 52.5146 88.9621 -53.6277 8.98455 -0.406207 -4.3199e-07 -6.1296 -1.12636 -2.28946 16.3773 -1.3905e-06 -6.99897e-07 3.08516 -4.28914 5.66644 6.45672 -1.25837e-06 -1.02172e-07 -5.33102 -2.37715 2.77852 12.9942 -0.242716 4.98039 -79.8236 -18.7295 -75.7933 5.34809 -7.22636e-06 -6.2814e-07 -34.5433 -77.1217 -93.6309 24.3286 1.87007e-05 4.90208e-06 -11.8136 -20.2516 -31.143 22.2916 -9.88446e-07 4.63217e-06 17.777 5.61916 -12.5647 12.9945 -0.242716 -4.98039 95.5428 -14.592 -83.9333 -5.34813 -1.25947e-06 -3.79883e-06 -63.758 -73.1893 -120.316 -24.3289 0.000322201 -8.65921e-06 -3.99634 -5.45652 -36.2974 -22.2915 -0.000108084 -4.47941e-06 12.0249 5.43871 -4.24086 -2.19248 -6.46944 -1.22534e-07 -158.117 -33.4155 -4.95391 39.0811 -6.73843e-06 -1.23785e-05 0.0764382 -0.099493 30.041 40.9854 -6.48686e-06 -1.26872e-05 -10.8865 3.67951 -55.8111 11.7543 -2.30145e-07 3.05095e-06 -0.0425279 -0.118483 -17.3267 -2.19251 6.46944 -1.45247e-06 158.683 32.4202 176.158 -39.0811 -0.00228153 -0.0401928 0.0820673 -0.108661 28.2751 -40.9854 7.72618e-06 5.99936e-06 -11.0375 3.17071 -57.0194 -11.7543 -5.6619e-06 -5.58687e-06 -1.14891 -1.28228 -16.9539 
0 0 0 0 0 -0 -1.3038 88.7676 -5.5567 89.8844 -2.48381 5.68204 15.7357 5.1072e-06 -5.51765e-07 55.6175 88.896 -56.7145 8.98455 -0.406207 -4.3199e-07 -5.95419 -1.11379 -2.25475 16.3773 -1.3905e-06 -6.99897e-07 3.00616 -4.39063 5.61014 6.45672 -1.25837e-06 -1.02172e-07 -5.33745 -2.63862 2.91817 12.9942 -0.242716 4.98039 -80.1698 -18.0954 -75.8443 5.34809 -7.22636e-06 -6.2814e-07 -24.3345 -76.3852 -81.516 24.3286 1.87007e-05 4.90208e-06 -12.223 -21.2273 -30.8924 22.2916 -9.88446e-07 4.63217e-06 17.5615 5.61919 -12.5646 12.9945 -0.242716 -4.98039 95.3191 -14.1153 -84.1049 -5.34813 -1.25947e-06 -3.79883e-06 -60.0662 -73.9427 -114.635 -24.3289 0.000322201 -8.65921e-06 -4.29169 -6.11601 -35.1528 -22.2915 -0.000108084 -4.47941e-06 12.1433 5.44033 -4.2971 -2.19248 -6.46944 -1.22534e-07 -158.009 -33.3307 -5.04327 39.0811 -6.73843e-06 -1.23785e-05 0.0789974 -0.102725 30.3135 40.9854 -6.48686e-06 -1.26872e-05 -10.8763 3.96687 -55.8968 11.7543 -2.30145e-07 3.05095e-06 0.0239317 -0.0373619 -17.2443 -2.19251 6.46944 -1.45247e-06 158.522 32.5335 176.29 -39.0811 -0.00228153 -0.0401928 0.0817539 -0.105883 28.6651 -40.9854 7.72618e-06 5.99936e-06 -11.1944 3.17408 -57.2193 -11.7543 -5.6619e-06 -5.58687e-06 -1.13351 -1.26216 -16.9277 
0 0 0 0 0 -0 -1.34724 88.7019 -5.67422 89.874 -2.21373 5.88173 15.7357 5.1072e-06 -5.51765e-07 59.0212 88.8437 -60.1169 8.98455 -0.406207 -4.3199e-07 -5.79312 -1.05912 -2.2475 16.3773 -1.3905e-06 -6.99897e-07 2.87217 -4.43319 5.41161 6.45672 -1.25837e-06 -1.02172e-07 -5.30908 -2.92712 3.11177 12.9942 -0.242716 4.98039 -80.6759 -17.2099 -75.9728 5.34809 -7.22636e-06 -6.2814e-07 -13.8009 -74.5736 -68.6395 24.3286 1.87007e-05 4.90208e-06 -12.5482 -22.0661 -30.6458 22.2916 -9.88446e-07 4.63217e-06 17.3994 5.61696 -12.4138 12.9945 -0.242716 -4.98039 94.9714 -13.3189 -84.3138 -5.34813 -1.25947e-06 -3.79883e-06 -52.6137 -74.7479 -104.483 -24.3289 0.000322201 -8.65921e-06 -4.54743 -6.77163 -33.9947 -22.2915 -0.000108084 -4.47941e-06 12.1883 5.43876 -4.24259 -2.19248 -6.46944 -1.22534e-07 -157.952 -33.19 -5.17991 39.0811 -6.73843e-06 -1.23785e-05 0.0825348 -0.107435 30.5989 40.9854 -6.48686e-06 -1.26872e-05 -10.8336 4.18252 -55.9536 11.7543 -2.30145e-07 3.05095e-06 0.0240335 -0.0375057 -17.2467 -2.19251 6.46944 -1.45247e-06 158.416 32.5721 176.342 -39.0811 -0.00228153 -0.0401928 0.0849832 -0.109356 29.0805 -40.9854 7.72618e-06 5.99936e-06 -11.2015 3.11077 -57.4719 -11.7543 -5.6619e-06 -5.58687e-06 -1.11077 -1.23326 -16.8986 
